<svg fill="#000000" xmlns="http://www.w3.org/2000/svg"  viewBox="0 0 100 100" width="100px" height="100px"><path d="M 24 17 C 20.145666 17 17 20.145666 17 24 L 17 76 C 17 79.854334 20.145666 83 24 83 L 76 83 C 79.854334 83 83 79.854334 83 76 L 83 24 C 83 20.145666 79.854334 17 76 17 L 24 17 z M 24 19 L 76 19 C 78.773666 19 81 21.226334 81 24 L 81 66.464844 L 81 66.5 C 81 69.543833 78.543833 72 75.5 72 A 0.50005 0.50005 0 1 0 75.5 73 C 77.816849 73 79.848731 71.776964 81 69.947266 L 81 76 C 81 78.773666 78.773666 81 76 81 L 24 81 C 21.226334 81 19 78.773666 19 76 L 19 69.947266 C 20.151269 71.776964 22.183151 73 24.5 73 L 58.5 73 A 0.50005 0.50005 0 1 0 58.5 72 L 24.5 72 C 21.456167 72 19 69.543833 19 66.5 L 19 24 C 19 21.226334 21.226334 19 24 19 z M 32.478516 35 C 32.079516 35 31.733453 35.098828 31.439453 35.298828 C 31.145453 35.497828 31 35.766562 31 36.101562 L 31 56.898438 C 31 57.255438 31.168906 57.527797 31.503906 57.716797 C 31.838906 57.904797 32.227969 58 32.667969 58 C 33.128969 58 33.521656 57.905797 33.847656 57.716797 C 34.171656 57.528797 34.333984 57.255437 34.333984 56.898438 L 34.333984 47.804688 L 39.210938 47.804688 C 39.567937 47.804688 39.835672 47.675109 40.013672 47.412109 C 40.192672 47.150109 40.28125 46.851625 40.28125 46.515625 C 40.28125 46.138625 40.187047 45.819641 39.998047 45.556641 C 39.809047 45.294641 39.547891 45.162109 39.212891 45.162109 L 34.335938 45.162109 L 34.335938 38 L 43.521484 38 C 43.857484 38 44.121547 37.811578 44.310547 37.517578 C 44.499547 37.223578 44.59375 36.867266 44.59375 36.447266 C 44.59375 36.049266 44.502219 35.708781 44.324219 35.425781 C 44.145219 35.142781 43.878484 35 43.521484 35 L 32.478516 35 z M 51.037109 35 C 50.704109 35 50.423313 35.115703 50.195312 35.345703 C 50.195313 35.345703 46.776172 38.632891 46.701172 38.712891 C 46.437172 38.997891 46.304688 39.350391 46.304688 39.775391 C 46.304687 40.110391 46.396859 40.372578 46.630859 40.642578 C 46.899859 40.952578 47.163438 41 47.398438 41 C 47.617438 41 47.846203 40.919812 48.033203 40.757812 C 48.059203 40.735813 49.199219 39.5 49.199219 39.5 L 49.199219 56.900391 C 49.199219 57.235391 49.361594 57.502172 49.683594 57.701172 C 50.005594 57.900172 50.392609 58 50.849609 58 C 51.285609 58 51.669953 57.901172 52.001953 57.701172 C 52.332953 57.503172 52.5 57.236391 52.5 56.900391 L 52.5 36.099609 C 52.5 35.764609 52.349828 35.497828 52.048828 35.298828 C 51.748828 35.099828 51.410109 35 51.037109 35 z M 62.267578 35 C 60.505578 35 58.990703 35.519594 57.720703 36.558594 C 56.450703 37.597594 55.816406 38.934312 55.816406 40.570312 C 55.816406 41.807312 56.320172 42.425781 57.326172 42.425781 C 57.850172 42.425781 58.276562 42.300781 58.601562 42.050781 C 58.926562 41.800781 59.089844 41.508781 59.089844 41.175781 C 59.089844 40.155781 59.382703 39.385234 59.970703 38.865234 C 60.557703 38.345234 61.322578 38.083984 62.267578 38.083984 C 63.378578 38.083984 64.223781 38.413266 64.800781 39.072266 C 65.376781 39.732266 65.664062 40.501859 65.664062 41.380859 C 65.664062 42.260859 65.314328 43.140531 64.611328 44.019531 C 63.908328 44.898531 63.052875 45.7055 62.046875 46.4375 L 59.025391 48.634766 C 58.024391 49.368766 57.181094 50.186891 56.496094 51.087891 C 55.812094 51.987891 55.470703 52.908563 55.470703 53.851562 L 55.470703 56.900391 C 55.470703 57.215391 55.632078 57.475547 55.955078 57.685547 C 56.278078 57.894547 56.605453 58 56.939453 58 L 67.90625 58 C 68.19725 58 68.452875 57.848922 68.671875 57.544922 C 68.889875 57.240922 68.998047 56.846266 68.998047 56.447266 C 68.998047 56.050266 68.888922 55.708781 68.669922 55.425781 C 68.449922 55.142781 68.192437 55 67.898438 55 L 58.806641 55 L 58.806641 53.849609 C 58.806641 53.200609 59.156375 52.530844 59.859375 51.839844 C 60.562375 51.148844 61.411203 50.46225 62.408203 49.78125 C 63.405203 49.10125 64.401438 48.380234 65.398438 47.615234 C 66.394438 46.851234 67.243266 45.919312 67.947266 44.820312 C 68.649266 43.721312 69 42.544109 69 41.287109 C 69 39.433109 68.344203 37.922906 67.033203 36.753906 C 65.722203 35.584906 64.134578 35 62.267578 35 z M 61.5 72 A 0.50005 0.50005 0 1 0 61.5 73 L 65.5 73 A 0.50005 0.50005 0 1 0 65.5 72 L 61.5 72 z M 68.5 72 A 0.50005 0.50005 0 1 0 68.5 73 L 69.5 73 A 0.50005 0.50005 0 1 0 69.5 72 L 68.5 72 z"/></svg>